<svg xmlns="http://www.w3.org/2000/svg" viewBox="0 0 32 32" fill="none">
  <defs>
    <linearGradient id="bg" x1="0" y1="0" x2="32" y2="32" gradientUnits="userSpaceOnUse">
      <stop stop-color="#667eea"/>
      <stop offset="1" stop-color="#764ba2"/>
    </linearGradient>
  </defs>
  <rect width="32" height="32" rx="8" fill="url(#bg)"/>
  <!-- Open book -->
  <path
    d="M6.5 9.2c0-.7.5-1.2 1.2-1.2 2.8 0 5.1 1 6.8 2.4.3.2.7.2 1 0 1.7-1.4 4-2.4 6.8-2.4.7 0 1.2.5 1.2 1.2v12.2c0 .6-.5 1.1-1.1 1.1-2.5 0-4.5.8-6.1 2-.4.3-.9.3-1.3 0-1.6-1.2-3.6-2-6.1-2-.6 0-1.1-.5-1.1-1.1V9.2z"
    fill="none"
    stroke="#fff"
    stroke-width="1.6"
    stroke-linejoin="round"
  />
  <path
    d="M16 10.4v12.8"
    stroke="#fff"
    stroke-width="1.6"
    stroke-linecap="round"
    opacity="0.85"
  />
  <!-- Soft page highlight -->
  <path
    d="M7.8 10.2c2.4.2 4.5 1.1 6.2 2.3v9.8c-1.6-1-3.6-1.6-6.2-1.6V10.2z"
    fill="#fff"
    opacity="0.18"
  />
</svg>
